<svg width="48" height="48" viewBox="0 0 48 48" fill="none" xmlns="http://www.w3.org/2000/svg">
<path d="M30 32L29.7549 33.2257C30.3076 33.3363 30.8659 33.0632 31.118 32.559L30 32ZM16 18L15.441 16.882C14.9368 17.1341 14.6637 17.6924 14.7743 18.2451L16 18ZM16.708 17.646L17.267 18.764L17.2671 18.764L16.708 17.646ZM18.6331 12.5827L19.7937 12.1185L19.7937 12.1185L18.6331 12.5827ZM17.0058 8.51444L15.8452 8.97868L15.8452 8.97868L17.0058 8.51444ZM39.4856 30.9942L39.9498 29.8336L39.9498 29.8336L39.4856 30.9942ZM35.4173 29.3669L35.8815 28.2063L35.8815 28.2063L35.4173 29.3669ZM30.354 31.292L31.4721 31.851L31.4721 31.851L30.354 31.292ZM40.75 34.7081V38H43.25V34.7081H40.75ZM10 7.25H13.2919V4.75H10V7.25ZM30 32C30.2451 30.7743 30.2455 30.7743 30.2458 30.7744C30.2459 30.7744 30.2462 30.7745 30.2464 30.7745C30.2467 30.7746 30.247 30.7746 30.2472 30.7747C30.2476 30.7748 30.2477 30.7748 30.2474 30.7747C30.247 30.7747 30.2454 30.7743 30.2427 30.7737C30.2371 30.7726 30.227 30.7704 30.2124 30.7672C30.1831 30.7607 30.1361 30.75 30.0728 30.7346C29.9461 30.7038 29.7543 30.6542 29.509 30.582C29.0178 30.4376 28.3152 30.2037 27.4924 29.8511C25.841 29.1433 23.7399 27.9721 21.8839 26.1161L20.1161 27.8839C22.2601 30.0279 24.659 31.3567 26.5076 32.1489C27.4348 32.5463 28.2322 32.8124 28.8035 32.9805C29.0895 33.0646 29.3196 33.1243 29.4819 33.1638C29.5631 33.1836 29.6274 33.1983 29.6734 33.2084C29.6964 33.2135 29.7148 33.2174 29.7284 33.2203C29.7352 33.2217 29.7409 33.2229 29.7453 33.2238C29.7475 33.2242 29.7494 33.2246 29.751 33.2249C29.7518 33.2251 29.7525 33.2253 29.7532 33.2254C29.7535 33.2254 29.7539 33.2255 29.7541 33.2256C29.7545 33.2256 29.7549 33.2257 30 32ZM21.8839 26.1161C20.0279 24.2601 18.8567 22.159 18.1489 20.5076C17.7963 19.6848 17.5624 18.9822 17.418 18.491C17.3458 18.2457 17.2962 18.0539 17.2654 17.9272C17.25 17.8639 17.2393 17.8169 17.2328 17.7876C17.2296 17.773 17.2274 17.7629 17.2263 17.7573C17.2257 17.7546 17.2253 17.753 17.2253 17.7526C17.2252 17.7523 17.2252 17.7524 17.2253 17.7528C17.2254 17.753 17.2254 17.7533 17.2255 17.7536C17.2255 17.7538 17.2256 17.7541 17.2256 17.7542C17.2257 17.7545 17.2257 17.7549 16 18C14.7743 18.2451 14.7744 18.2455 14.7744 18.2459C14.7745 18.2461 14.7746 18.2465 14.7746 18.2468C14.7747 18.2475 14.7749 18.2482 14.7751 18.249C14.7754 18.2506 14.7758 18.2525 14.7762 18.2547C14.7771 18.2591 14.7783 18.2648 14.7797 18.2716C14.7826 18.2852 14.7865 18.3036 14.7916 18.3266C14.8017 18.3726 14.8164 18.4369 14.8362 18.5181C14.8757 18.6804 14.9354 18.9105 15.0195 19.1965C15.1876 19.7678 15.4537 20.5652 15.8511 21.4924C16.6433 23.341 17.9721 25.7399 20.1161 27.8839L21.8839 26.1161ZM16.559 19.118L17.267 18.764L16.149 16.5279L15.441 16.882L16.559 19.118ZM19.7937 12.1185L18.1664 8.0502L15.8452 8.97868L17.4725 13.047L19.7937 12.1185ZM39.9498 29.8336L35.8815 28.2063L34.953 30.5275L39.0213 32.1548L39.9498 29.8336ZM29.236 30.7329L28.882 31.441L31.118 32.559L31.4721 31.851L29.236 30.7329ZM35.8815 28.2063C33.3464 27.1923 30.4571 28.2907 29.236 30.733L31.4721 31.851C32.1117 30.5717 33.6251 29.9963 34.9531 30.5275L35.8815 28.2063ZM17.2671 18.764C19.7093 17.5429 20.8078 14.6536 19.7937 12.1185L17.4725 13.047C18.0037 14.3749 17.4283 15.8883 16.149 16.5279L17.2671 18.764ZM13.2919 7.25C14.4164 7.25 15.4276 7.93462 15.8452 8.97868L18.1664 8.0502C17.3691 6.05699 15.4386 4.75 13.2919 4.75V7.25ZM43.25 34.7081C43.25 32.5614 41.943 30.6309 39.9498 29.8336L39.0213 32.1548C40.0654 32.5724 40.75 33.5836 40.75 34.7081H43.25ZM38 40.75C21.0172 40.75 7.25 26.9828 7.25 10H4.75C4.75 28.3635 19.6365 43.25 38 43.25V40.75ZM38 43.25C40.8995 43.25 43.25 40.8995 43.25 38H40.75C40.75 39.5188 39.5188 40.75 38 40.75V43.25ZM7.25 10C7.25 8.48122 8.48122 7.25 10 7.25V4.75C7.10051 4.75 4.75 7.1005 4.75 10H7.25Z" fill="#141718"/>
</svg>
