<svg width="48" height="48" viewBox="0 0 48 48" fill="none" xmlns="http://www.w3.org/2000/svg">
<path d="M22.75 32C22.75 32.6904 23.3096 33.25 24 33.25C24.6904 33.25 25.25 32.6904 25.25 32H22.75ZM25.25 28C25.25 27.3096 24.6904 26.75 24 26.75C23.3096 26.75 22.75 27.3096 22.75 28H25.25ZM16 17.25H32V14.75H16V17.25ZM38.75 24V36H41.25V24H38.75ZM32 42.75H16V45.25H32V42.75ZM9.25 36V24H6.75V36H9.25ZM16 42.75C12.2721 42.75 9.25 39.7279 9.25 36H6.75C6.75 41.1086 10.8914 45.25 16 45.25V42.75ZM38.75 36C38.75 39.7279 35.7279 42.75 32 42.75V45.25C37.1086 45.25 41.25 41.1086 41.25 36H38.75ZM32 17.25C35.7279 17.25 38.75 20.2721 38.75 24H41.25C41.25 18.8914 37.1086 14.75 32 14.75V17.25ZM16 14.75C10.8914 14.75 6.75 18.8914 6.75 24H9.25C9.25 20.2721 12.2721 17.25 16 17.25V14.75ZM17.25 16V12H14.75V16H17.25ZM30.75 12V16H33.25V12H30.75ZM24 5.25C27.7279 5.25 30.75 8.27208 30.75 12H33.25C33.25 6.89137 29.1086 2.75 24 2.75V5.25ZM17.25 12C17.25 8.27208 20.2721 5.25 24 5.25V2.75C18.8914 2.75 14.75 6.89137 14.75 12H17.25ZM25.25 32V28H22.75V32H25.25Z" fill="#141718"/>
</svg>
