<svg width="48" height="48" viewBox="0 0 48 48" fill="none" xmlns="http://www.w3.org/2000/svg">
<path d="M42.7358 20.3148L41.8808 21.2267L41.8808 21.2267L42.7358 20.3148ZM37.154 15.0819L38.0089 14.1699L38.0089 14.1699L37.154 15.0819ZM12 7.25H20V4.75H12V7.25ZM26.75 14V38H29.25V14H26.75ZM5.25 30V14H2.75V30H5.25ZM20 7.25C23.7279 7.25 26.75 10.2721 26.75 14H29.25C29.25 8.89137 25.1086 4.75 20 4.75V7.25ZM12 4.75C6.89137 4.75 2.75 8.89137 2.75 14H5.25C5.25 10.2721 8.27208 7.25 12 7.25V4.75ZM28 15.25H34.4182V12.75H28V15.25ZM36.299 15.9938L41.8808 21.2267L43.5907 19.4029L38.0089 14.1699L36.299 15.9938ZM42.75 23.2329V34H45.25V23.2329H42.75ZM41.8808 21.2267C42.4354 21.7466 42.75 22.4728 42.75 23.2329H45.25C45.25 21.7818 44.6494 20.3954 43.5907 19.4029L41.8808 21.2267ZM40 39.25C42.8995 39.25 45.25 36.8995 45.25 34H42.75C42.75 35.5188 41.5188 36.75 40 36.75V39.25ZM34.4182 15.25C35.1169 15.25 35.7893 15.5159 36.2991 15.9938L38.0089 14.1699C37.0358 13.2577 35.752 12.75 34.4182 12.75V15.25ZM16.75 38C16.75 39.5188 15.5188 40.75 14 40.75V43.25C16.8995 43.25 19.25 40.8995 19.25 38H16.75ZM14 40.75C12.4812 40.75 11.25 39.5188 11.25 38H8.75C8.75 40.8995 11.1005 43.25 14 43.25V40.75ZM14 35.25C15.5188 35.25 16.75 36.4812 16.75 38H19.25C19.25 35.1005 16.8995 32.75 14 32.75V35.25ZM38.75 38C38.75 39.5188 37.5188 40.75 36 40.75V43.25C38.8995 43.25 41.25 40.8995 41.25 38H38.75ZM36 40.75C34.4812 40.75 33.25 39.5188 33.25 38H30.75C30.75 40.8995 33.1005 43.25 36 43.25V40.75ZM33.25 38C33.25 36.4812 34.4812 35.25 36 35.25V32.75C33.1005 32.75 30.75 35.1005 30.75 38H33.25ZM36 35.25C37.5188 35.25 38.75 36.4812 38.75 38H41.25C41.25 35.1005 38.8995 32.75 36 32.75V35.25ZM28 39.25H32V36.75H28V39.25ZM11.25 38C11.25 37.9417 11.2518 37.884 11.2553 37.8269L8.76006 37.673C8.75338 37.7813 8.75 37.8903 8.75 38H11.25ZM11.2553 37.8269C11.344 36.3894 12.5394 35.25 14 35.25V32.75C11.2103 32.75 8.92955 34.9252 8.76006 37.673L11.2553 37.8269ZM10.3181 36.5391C7.40319 35.792 5.25 33.1459 5.25 30H2.75C2.75 34.315 5.70348 37.9371 9.69733 38.9608L10.3181 36.5391ZM18 39.25H28V36.75H18V39.25Z" fill="#141718"/>
<path d="M20 16H16" stroke="#141718" stroke-width="2.5" stroke-linecap="round" stroke-linejoin="round"/>
<path d="M20 24H12" stroke="#141718" stroke-width="2.5" stroke-linecap="round" stroke-linejoin="round"/>
</svg>
